<?xml version="1.0" encoding="iso-8859-1"?>
<!-- Generator: Adobe Illustrator 19.0.0, SVG Export Plug-In . SVG Version: 6.00 Build 0)  -->
<svg version="1.1" id="Layer_1" xmlns="http://www.w3.org/2000/svg" xmlns:xlink="http://www.w3.org/1999/xlink" x="0px" y="0px"
	 viewBox="0 0 512 512" style="enable-background:new 0 0 512 512;" xml:space="preserve">
<path style="fill:#CAD1D7;" d="M126.475,440.382H34.24c-13.259,0-25.067-7.427-30.817-19.376
	c-5.631-11.704-4.234-25.247,3.602-35.532l139.051-207.5c4.103-6.127,11.731-8.845,18.802-6.706
	c7.06,2.144,11.884,8.659,11.884,16.037v202.791C176.76,417.826,154.204,440.382,126.475,440.382z"/>
<path style="fill:#E3B236;" d="M394.666,71.618h-109.96c-21.678,0-40.786,13.857-47.715,34.418l-10.841,32.63h134.991
	c9.276,0,16.762,7.487,16.762,16.762v67.048c0,9.275-7.486,16.762-16.762,16.762H210.284v50.286c0,9.275,7.486,16.762,16.762,16.762
	H428.19c9.276,0,16.762-7.487,16.762-16.762v-167.62C444.952,94.191,422.379,71.618,394.666,71.618z"/>
<path style="fill:#DA9A2B;" d="M394.666,71.618h-67.048v234.668H428.19c9.276,0,16.762-7.487,16.762-16.762v-167.62
	C444.952,94.191,422.379,71.618,394.666,71.618z"/>
<path style="fill:#6E6057;" d="M377.904,155.428v67.048c0,9.275-7.486,16.762-16.762,16.762H210.284v-28.495
	c0-16.315,2.57-32.295,7.709-47.716l8.158-24.361h134.991C370.418,138.666,377.904,146.153,377.904,155.428z"/>
<path style="fill:#615349;" d="M361.142,138.666h-33.524v100.572h33.524c9.276,0,16.762-7.487,16.762-16.762v-67.048
	C377.904,146.153,370.418,138.666,361.142,138.666z"/>
<path style="fill:#6E6057;" d="M428.19,440.382H227.046c-46.215,0-83.81-37.595-83.81-83.81s37.595-83.81,83.81-83.81H428.19
	c46.215,0,83.81,37.595,83.81,83.81S474.406,440.382,428.19,440.382z"/>
<path style="fill:#615349;" d="M428.19,272.762H327.618v167.62H428.19c46.215,0,83.81-37.595,83.81-83.81
	S474.406,272.762,428.19,272.762z"/>
<path style="fill:#DBDFE3;" d="M227.046,306.286c-27.729,0-50.286,22.557-50.286,50.286s22.557,50.286,50.286,50.286H428.19
	c27.729,0,50.286-22.557,50.286-50.286s-22.557-50.286-50.286-50.286H227.046z"/>
<path style="fill:#CAD1D7;" d="M428.19,306.286H327.618v100.572H428.19c27.729,0,50.286-22.557,50.286-50.286
	S455.92,306.286,428.19,306.286z"/>
<g>
	<circle style="fill:#6E6057;" cx="227.046" cy="356.572" r="16.762"/>
	<circle style="fill:#6E6057;" cx="294.094" cy="356.572" r="16.762"/>
</g>
<g>
	<circle style="fill:#615349;" cx="361.142" cy="356.572" r="16.762"/>
	<circle style="fill:#615349;" cx="428.19" cy="356.572" r="16.762"/>
</g>
<g>
</g>
<g>
</g>
<g>
</g>
<g>
</g>
<g>
</g>
<g>
</g>
<g>
</g>
<g>
</g>
<g>
</g>
<g>
</g>
<g>
</g>
<g>
</g>
<g>
</g>
<g>
</g>
<g>
</g>
</svg>
